{
  "source": "C:\\Users\\Peter\\Desktop\\stuff\\MIUN\\quantitative_research\\video_compression\\videos\\BVI-HD\\BVI-HD_CDVL_videos\\ORIG\\CalmingWater_1920x1080_60fps.mp4",
  "output": "C:\\Users\\Peter\\Desktop\\stuff\\MIUN\\quantitative_research\\video_compression\\compressed_videos\\BVI-HD\\h264\\8\\CalmingWater_1920x1080_60fps_h264.mp4",
  "codec": "h264",
  "ok": "Input #0, mov,mp4,m4a,3gp,3g2,mj2, from 'C:\\Users\\Peter\\Desktop\\stuff\\MIUN\\quantitative_research\\video_compression\\videos\\BVI-HD\\BVI-HD_CDVL_videos\\ORIG\\CalmingWater_1920x1080_60fps.mp4':\n  Metadata:\n    major_brand     : isom\n    minor_version   : 512\n    compatible_brands: isomiso2avc1mp41\n    encoder         : Lavf54.28.101\n  Duration: 00:00:05.00, start: 0.000000, bitrate: 623787 kb/s\n  Stream #0:0[0x1](und): Video: h264 (High 4:4:4 Predictive) (avc1 / 0x31637661), yuv420p(progressive), 1920x1080, 623782 kb/s, 60 fps, 60 tbr, 60 tbn (default)\n    Metadata:\n      handler_name    : VideoHandler\n      vendor_id       : [0][0][0][0]\n[out#0/mp4 @ 00000189e03f9b40] Codec AVOption b:a (set bitrate (in bits/s)) has not been used for any stream. The most likely reason is either wrong type (e.g. a video option with no video streams) or that it is a private option of some decoder which was not actually used for any stream.\nStream mapping:\n  Stream #0:0 -> #0:0 (h264 (native) -> h264 (libx264))\nPress [q] to stop, [?] for help\n[libx264 @ 00000189e0ee0300] using cpu capabilities: MMX2 SSE2Fast SSSE3 SSE4.2 AVX FMA3 BMI2 AVX2\n[libx264 @ 00000189e0ee0300] profile High, level 5.0, 4:2:0, 8-bit\n[libx264 @ 00000189e0ee0300] 264 - core 165 r3222 b35605a - H.264/MPEG-4 AVC codec - Copyleft 2003-2025 - http://www.videolan.org/x264.html - options: cabac=1 ref=5 deblock=1:0:0 analyse=0x3:0x113 me=hex subme=8 psy=1 psy_rd=1.00:0.00 mixed_ref=1 me_range=16 chroma_me=1 trellis=2 8x8dct=1 cqm=0 deadzone=21,11 fast_pskip=1 chroma_qp_offset=-2 threads=18 lookahead_threads=3 sliced_threads=0 nr=0 decimate=1 interlaced=0 bluray_compat=0 constrained_intra=0 bframes=3 b_pyramid=2 b_adapt=1 b_bias=0 direct=3 weightb=1 open_gop=0 weightp=2 keyint=250 keyint_min=25 scenecut=40 intra_refresh=0 rc_lookahead=50 rc=cbr mbtree=1 bitrate=8000 ratetol=1.0 qcomp=0.60 qpmin=0 qpmax=69 qpstep=4 vbv_maxrate=8000 vbv_bufsize=8000 nal_hrd=none filler=0 ip_ratio=1.40 aq=1:1.00\nOutput #0, mp4, to 'C:\\Users\\Peter\\Desktop\\stuff\\MIUN\\quantitative_research\\video_compression\\compressed_videos\\BVI-HD\\h264\\8\\CalmingWater_1920x1080_60fps_h264.mp4':\n  Metadata:\n    major_brand     : isom\n    minor_version   : 512\n    compatible_brands: isomiso2avc1mp41\n    encoder         : Lavf62.3.100\n  Stream #0:0(und): Video: h264 (avc1 / 0x31637661), yuv420p(tv, progressive), 1920x1080, q=2-31, 8000 kb/s, 60 fps, 15360 tbn (default)\n    Metadata:\n      encoder         : Lavc62.11.100 libx264\n      handler_name    : VideoHandler\n      vendor_id       : [0][0][0][0]\n    Side data:\n      cpb: bitrate max/min/avg: 8000000/0/8000000 buffer size: 8000000 vbv_delay: N/A\nframe=    0 fps=0.0 q=0.0 size=       0KiB time=N/A bitrate=N/A speed=N/A elapsed=0:00:01.42    \nframe=    0 fps=0.0 q=0.0 size=       0KiB time=N/A bitrate=N/A speed=N/A elapsed=0:00:02.27    \nframe=    0 fps=0.0 q=0.0 size=       0KiB time=N/A bitrate=N/A speed=N/A elapsed=0:00:02.93    \nframe=    0 fps=0.0 q=0.0 size=       0KiB time=N/A bitrate=N/A speed=N/A elapsed=0:00:03.57    \nframe=    0 fps=0.0 q=0.0 size=       0KiB time=N/A bitrate=N/A speed=N/A elapsed=0:00:04.16    \nframe=    0 fps=0.0 q=0.0 size=       0KiB time=N/A bitrate=N/A speed=N/A elapsed=0:00:04.73    \nframe=    7 fps=1.3 q=45.0 size=       0KiB time=00:00:00.06 bitrate=   5.8kbits/s speed=0.0126x elapsed=0:00:05.28    \nframe=   15 fps=2.5 q=45.0 size=     256KiB time=00:00:00.18 bitrate=11441.1kbits/s speed=0.0309x elapsed=0:00:05.94    \nframe=   22 fps=3.3 q=45.0 size=     256KiB time=00:00:00.30 bitrate=6991.8kbits/s speed=0.0451x elapsed=0:00:06.64    \nframe=   29 fps=4.0 q=45.0 size=     512KiB time=00:00:00.43 bitrate=9680.1kbits/s speed=0.0591x elapsed=0:00:07.32    \nframe=   38 fps=4.8 q=45.0 size=     512KiB time=00:00:00.56 bitrate=7402.4kbits/s speed=0.0713x elapsed=0:00:07.94    \nframe=   46 fps=5.3 q=45.0 size=     768KiB time=00:00:00.71 bitrate=8779.3kbits/s speed=0.0826x elapsed=0:00:08.67    \nframe=   53 fps=5.7 q=45.0 size=     768KiB time=00:00:00.85 bitrate=7402.2kbits/s speed=0.091x elapsed=0:00:09.33    \nframe=   62 fps=6.2 q=45.0 size=    1024KiB time=00:00:00.98 bitrate=8531.2kbits/s speed=0.099x elapsed=0:00:09.93    \nframe=   70 fps=6.6 q=45.0 size=    1024KiB time=00:00:01.13 bitrate=7402.1kbits/s speed=0.107x elapsed=0:00:10.60    \nframe=   79 fps=7.0 q=45.0 size=    1280KiB time=00:00:01.26 bitrate=8278.5kbits/s speed=0.113x elapsed=0:00:11.20    \nframe=   87 fps=7.3 q=45.0 size=    1280KiB time=00:00:01.40 bitrate=7490.1kbits/s speed=0.118x elapsed=0:00:11.83    \nframe=   94 fps=7.5 q=44.0 size=    1536KiB time=00:00:01.51 bitrate=8296.7kbits/s speed=0.121x elapsed=0:00:12.50    \nframe=  103 fps=7.8 q=44.0 size=    1536KiB time=00:00:01.65 bitrate=7626.2kbits/s speed=0.125x elapsed=0:00:13.15    \nframe=  110 fps=8.0 q=44.0 size=    1792KiB time=00:00:01.80 bitrate=8155.8kbits/s speed=0.13x elapsed=0:00:13.79    \nframe=  119 fps=8.3 q=44.0 size=    1792KiB time=00:00:01.93 bitrate=7593.3kbits/s speed=0.134x elapsed=0:00:14.38    \nframe=  128 fps=8.5 q=43.0 size=    2048KiB time=00:00:02.08 bitrate=8053.2kbits/s speed=0.139x elapsed=0:00:15.02    \nframe=  138 fps=8.8 q=43.0 size=    2048KiB time=00:00:02.25 bitrate=7456.7kbits/s speed=0.144x elapsed=0:00:15.64    \nframe=  146 fps=9.0 q=43.0 size=    2304KiB time=00:00:02.38 bitrate=7919.5kbits/s speed=0.147x elapsed=0:00:16.20    \nframe=  155 fps=9.2 q=43.0 size=    2304KiB time=00:00:02.53 bitrate=7450.6kbits/s speed=0.15x elapsed=0:00:16.85    \nframe=  162 fps=9.3 q=43.0 size=    2560KiB time=00:00:02.63 bitrate=7964.0kbits/s speed=0.151x elapsed=0:00:17.47    \nframe=  171 fps=9.4 q=43.0 size=    2560KiB time=00:00:02.78 bitrate=7534.8kbits/s speed=0.154x elapsed=0:00:18.13    \nframe=  178 fps=9.5 q=42.0 size=    2816KiB time=00:00:02.91 bitrate=7909.4kbits/s speed=0.156x elapsed=0:00:18.75    \nframe=  186 fps=9.6 q=43.0 size=    2816KiB time=00:00:03.03 bitrate=7605.2kbits/s speed=0.157x elapsed=0:00:19.33    \nframe=  195 fps=9.7 q=42.0 size=    3072KiB time=00:00:03.20 bitrate=7864.4kbits/s speed=0.16x elapsed=0:00:20.02    \nframe=  203 fps=9.8 q=42.0 size=    3072KiB time=00:00:03.33 bitrate=7549.9kbits/s speed=0.161x elapsed=0:00:20.64    \nframe=  213 fps= 10 q=42.0 size=    3328KiB time=00:00:03.51 bitrate=7752.6kbits/s speed=0.165x elapsed=0:00:21.25    \nframe=  223 fps= 10 q=41.0 size=    3328KiB time=00:00:03.66 bitrate=7435.5kbits/s speed=0.168x elapsed=0:00:21.83    \nframe=  231 fps= 10 q=41.0 size=    3584KiB time=00:00:03.80 bitrate=7726.5kbits/s speed=0.169x elapsed=0:00:22.44    \nframe=  245 fps= 11 q=41.0 size=    3840KiB time=00:00:04.03 bitrate=7799.4kbits/s speed=0.175x elapsed=0:00:23.07    \nframe=  262 fps= 11 q=39.0 size=    4096KiB time=00:00:04.33 bitrate=7743.4kbits/s speed=0.183x elapsed=0:00:23.70    \nframe=  274 fps= 11 q=37.0 size=    4096KiB time=00:00:04.53 bitrate=7401.8kbits/s speed=0.186x elapsed=0:00:24.32    \nframe=  286 fps= 11 q=-1.0 size=    4352KiB time=00:00:04.73 bitrate=7532.1kbits/s speed=0.19x elapsed=0:00:24.94    \n[mp4 @ 00000189e0487ac0] Starting second pass: moving the moov atom to the beginning of the file\n[out#0/mp4 @ 00000189e03f9b40] video:4736KiB audio:0KiB subtitle:0KiB other streams:0KiB global headers:0KiB muxing overhead: 0.054417%\nframe=  300 fps= 12 q=-1.0 Lsize=    4739KiB time=00:00:04.96 bitrate=7815.7kbits/s speed=0.196x elapsed=0:00:25.39    \n[libx264 @ 00000189e0ee0300] frame I:2     Avg QP:39.12  size: 42750\n[libx264 @ 00000189e0ee0300] frame P:252   Avg QP:44.91  size: 16531\n[libx264 @ 00000189e0ee0300] frame B:46    Avg QP:43.23  size: 12991\n[libx264 @ 00000189e0ee0300] consecutive B-frames: 79.3%  0.7%  0.0% 20.0%\n[libx264 @ 00000189e0ee0300] mb I  I16..4: 20.3% 77.4%  2.3%\n[libx264 @ 00000189e0ee0300] mb P  I16..4: 11.6%  5.4%  0.0%  P16..4: 51.3%  3.2%  2.1%  0.0%  0.0%    skip:26.3%\n[libx264 @ 00000189e0ee0300] mb B  I16..4:  1.0%  2.0%  0.0%  B16..8: 48.8%  4.6%  0.3%  direct: 2.6%  skip:40.7%  L0:49.4% L1:48.6% BI: 2.0%\n[libx264 @ 00000189e0ee0300] 8x8 transform intra:34.8% inter:97.7%\n[libx264 @ 00000189e0ee0300] direct mvs  spatial:87.0% temporal:13.0%\n[libx264 @ 00000189e0ee0300] coded y,uvDC,uvAC intra: 10.9% 43.9% 3.9% inter: 10.0% 29.8% 0.1%\n[libx264 @ 00000189e0ee0300] i16 v,h,dc,p: 20% 35% 10% 36%\n[libx264 @ 00000189e0ee0300] i8 v,h,dc,ddl,ddr,vr,hd,vl,hu:  3%  7% 13%  8% 16%  8% 21%  7% 16%\n[libx264 @ 00000189e0ee0300] i4 v,h,dc,ddl,ddr,vr,hd,vl,hu:  2%  3%  4% 10% 17% 11% 17%  9% 26%\n[libx264 @ 00000189e0ee0300] i8c dc,h,v,p: 64% 23%  7%  7%\n[libx264 @ 00000189e0ee0300] Weighted P-Frames: Y:3.2% UV:0.4%\n[libx264 @ 00000189e0ee0300] ref P L0: 61.0%  4.4% 15.0%  7.2%  6.6%  5.6%  0.2%\n[libx264 @ 00000189e0ee0300] ref B L0: 79.4% 12.1%  5.8%  2.7%\n[libx264 @ 00000189e0ee0300] ref B L1: 95.7%  4.3%\n[libx264 @ 00000189e0ee0300] kb/s:7758.15\n",
  "seconds": 25.993485927581787,
  "probe_out": {}
}